<mxfile host="app.diagrams.net" agent="Mozilla/5.0 (Windows NT 10.0; Win64; x64) AppleWebKit/537.36 (KHTML, like Gecko) Chrome/128.0.0.0 Safari/537.36" version="24.7.8">
  <diagram name="Page-1" id="yzJ67ilfHg_9fDFUsQ3k">
    <mxGraphModel dx="1994" dy="589" grid="1" gridSize="10" guides="1" tooltips="1" connect="1" arrows="1" fold="1" page="1" pageScale="1" pageWidth="827" pageHeight="1169" math="0" shadow="0">
      <root>
        <mxCell id="0" />
        <mxCell id="1" parent="0" />
        <mxCell id="V79AaJKylNzjQyo3EDW3-4" value="&lt;b style=&quot;font-size: 14px;&quot;&gt;Projet d&#39;Exploitation des Ressources&amp;nbsp;&lt;br&gt;Naturelles  &lt;/b&gt;" style="text;html=1;align=center;verticalAlign=middle;whiteSpace=wrap;rounded=0;" vertex="1" parent="1">
          <mxGeometry x="-78.96" y="320" width="280" height="30" as="geometry" />
        </mxCell>
        <mxCell id="V79AaJKylNzjQyo3EDW3-5" value="&lt;span style=&quot;font-size: 14px;&quot;&gt;&lt;b&gt;Partie prenantes&lt;/b&gt;&lt;/span&gt;" style="text;html=1;align=center;verticalAlign=middle;whiteSpace=wrap;rounded=0;" vertex="1" parent="1">
          <mxGeometry x="280" y="320" width="280" height="30" as="geometry" />
        </mxCell>
        <mxCell id="V79AaJKylNzjQyo3EDW3-7" value="" style="shape=image;verticalLabelPosition=bottom;labelBackgroundColor=default;verticalAlign=top;aspect=fixed;imageAspect=0;image=https://cdn-icons-png.flaticon.com/512/5941/5941745.png;" vertex="1" parent="1">
          <mxGeometry x="320" y="138" width="182" height="182" as="geometry" />
        </mxCell>
        <mxCell id="V79AaJKylNzjQyo3EDW3-8" value="" style="shape=image;verticalLabelPosition=bottom;labelBackgroundColor=default;verticalAlign=top;aspect=fixed;imageAspect=0;image=https://as1.ftcdn.net/v2/jpg/00/34/80/08/1000_F_34800883_2yULPfGwY98is4PkPoisLj9eJDmsjUkb.jpg;" vertex="1" parent="1">
          <mxGeometry x="760" y="190" width="213.11" height="97.39" as="geometry" />
        </mxCell>
        <mxCell id="V79AaJKylNzjQyo3EDW3-9" value="" style="shape=image;verticalLabelPosition=bottom;labelBackgroundColor=default;verticalAlign=top;aspect=fixed;imageAspect=0;image=https://thumbs.dreamstime.com/b/conception-de-ressources-naturelles-65267795.jpg;" vertex="1" parent="1">
          <mxGeometry x="-38.96" y="110" width="200" height="200" as="geometry" />
        </mxCell>
        <mxCell id="V79AaJKylNzjQyo3EDW3-10" value="" style="shape=flexArrow;endArrow=classic;html=1;rounded=0;" edge="1" parent="1">
          <mxGeometry width="50" height="50" relative="1" as="geometry">
            <mxPoint x="186.04" y="260" as="sourcePoint" />
            <mxPoint x="306.04" y="260" as="targetPoint" />
          </mxGeometry>
        </mxCell>
        <mxCell id="V79AaJKylNzjQyo3EDW3-11" value="&lt;b&gt;&lt;font color=&quot;#333333&quot; style=&quot;font-size: 20px;&quot;&gt;Etude de projet&lt;/font&gt;&lt;/b&gt;" style="text;html=1;align=center;verticalAlign=middle;whiteSpace=wrap;rounded=0;" vertex="1" parent="1">
          <mxGeometry x="161.04" y="210" width="170" height="30" as="geometry" />
        </mxCell>
        <mxCell id="V79AaJKylNzjQyo3EDW3-12" value="&lt;div&gt;&lt;font color=&quot;#333333&quot;&gt;&lt;span style=&quot;font-size: 20px;&quot;&gt;&lt;b&gt;echange&lt;/b&gt;&lt;/span&gt;&lt;/font&gt;&lt;/div&gt;&lt;div&gt;&lt;font color=&quot;#333333&quot;&gt;&lt;span style=&quot;font-size: 20px;&quot;&gt;&lt;b&gt;d’informations et des négociation&lt;/b&gt;&lt;/span&gt;&lt;/font&gt;&lt;/div&gt;" style="text;html=1;align=center;verticalAlign=middle;whiteSpace=wrap;rounded=0;" vertex="1" parent="1">
          <mxGeometry x="480" y="214" width="290" height="30" as="geometry" />
        </mxCell>
      </root>
    </mxGraphModel>
  </diagram>
</mxfile>
